:FULLY-SPECIFIED
:FORCE-ALL-JOINTS-BE-3DOF
:DEGREES
442
root 1.48949 15.2316 -9.1147 5.49212 4.83139 -13.5423
lfemur -46.8501 16.8114 3.9745
ltibia 62.9553 0 0
lfoot -24.9916 -10.2701 0
ltoes -12.7255 0 0
rfemur -14.9411 -3.44768 8.90199
rtibia 38.8284 0 0
rfoot -14.6389 -13.9723 0
rtoes -49.791 0 0
lowerback 6.02945 1.6015 4.3986
upperback 1.01281 2.43843 0.924751
thorax -2.1908 1.18676 -1.7001
lowerneck -7.15866 0.0337935 5.62298
upperneck 0.687406 -0.434285 0.0690367
head 1.41974 -0.189785 -0.949097
lclavicle 2.90226e-14 6.36111e-15 0
lhumerus -39.6318 -28.4329 97.6213
lradius 54.1431 0 0
lwrist 7.92235 0 0
lhand -20.0855 -1.30814 0
lfingers 7.12502 0 0
lthumb 6.25724 28.5794 0
rclavicle 2.90226e-14 6.36111e-15 0
rhumerus -48.3514 -2.52445 -89.7222
rradius 66.3347 0 0
rwrist 12.906 0 0
rhand -30.9208 -29.1118 0
rfingers 7.12502 0 0
rthumb -4.20662 -779.05 0
443
root 1.45534 15.2379 -9.06618 5.55754 6.5611 -13.7191
lfemur -48.0437 17.8374 3.08502
ltibia 63.1479 -0 0
lfoot -24.1845 -9.91632 0.0241064
ltoes -11.5117 0 0
rfemur -14.2479 -4.52084 9.3661
rtibia 38.6613 -0 0
rfoot -14.5747 -14.6075 -0.00913531
rtoes -49.8811 0 0
lowerback 5.93074 1.58943 4.54439
upperback 0.975643 2.42957 0.987714
thorax -2.17184 1.18168 -1.71349
lowerneck -7.16336 -0.153808 5.43347
upperneck 0.482122 -0.664175 0.0901149
head 1.34622 -0.309384 -0.915873
lclavicle 3.50076e-14 1.377e-15 1.46985e-30
lhumerus -39.6117 -28.0711 97.8258
lradius 54.2325 -0 0
lwrist 7.59191 0 0
lhand -20.9185 -1.87044 0.0228654
lfingers 7.12502 -0 0
lthumb 5.45284 28.0315 0.0217849
rclavicle 3.50076e-14 1.377e-15 1.46985e-30
rhumerus -48.2345 -2.43436 -89.5806
rradius 66.1766 -0 0
rwrist 12.82 0 0
rhand -30.2183 -28.5744 0.0131646
rfingers 7.12502 -0 0
rthumb -3.52829 -58.5242 0.0129193
444
root 1.43124 15.2481 -9.01476 5.62854 8.36836 -13.9177
lfemur -49.3634 18.8436 2.00273
ltibia 63.3728 -0 0
lfoot -23.2638 -9.34065 0.0451791
ltoes -10.0642 0 0
rfemur -13.5033 -5.49609 9.79142
rtibia 38.3858 -0 0
rfoot -14.4407 -15.1286 -0.00662849
rtoes -50.0123 0 0
lowerback 5.77434 1.54113 4.78135
upperback 0.935743 2.37501 1.06675
thorax -2.12382 1.15379 -1.75621
lowerneck -7.15726 -0.33543 5.24822
upperneck 0.315921 -0.886657 0.100157
head 1.2849 -0.424178 -0.8863
lclavicle 4.36932e-14 -5.34112e-15 3.23214e-30
lhumerus -39.6519 -27.635 98.0852
lradius 54.2788 -0 0
lwrist 7.2267 0 0
lhand -21.9521 -2.56366 0.044334
lfingers 7.12502 -0 0
lthumb 4.45474 27.3536 0.0421752
rclavicle 4.36932e-14 -5.34112e-15 3.23214e-30
rhumerus -48.1348 -2.31029 -89.3728
rradius 66.0743 -0 0
rwrist 12.7172 0 0
rhand -29.444 -27.8497 0.0275122
rfingers 7.12502 -0 0
rthumb -2.78045 -57.8087 0.0268415
445
root 1.41693 15.2622 -8.96052 5.69294 10.2287 -14.1245
lfemur -50.7429 19.808 0.765111
ltibia 63.6016 -0 0
lfoot -22.2928 -8.60524 0.0568504
ltoes -8.45855 0 0
rfemur -12.711 -6.36646 10.1809
rtibia 38.0216 -0 0
rfoot -14.2017 -15.5668 0.00189261
rtoes -50.1716 0 0
lowerback 5.57265 1.46808 5.07622
upperback 0.89258 2.28776 1.15837
thorax -2.05443 1.10973 -1.81472
lowerneck -7.14441 -0.513463 5.06823
upperneck 0.18726 -1.10528 0.102907
head 1.23565 -0.536054 -0.859715
lclavicle 5.32731e-14 -1.30282e-14 4.182e-30
lhumerus -39.7475 -27.1523 98.39
lradius 54.285 -0 0
lwrist 6.83303 0 0
lhand -23.0983 -3.34992 0.0571968
lfingers 7.12502 -0 0
lthumb 3.34794 26.5826 0.0543663
rclavicle 5.32731e-14 -1.30282e-14 4.182e-30
rhumerus -48.0635 -2.17141 -89.1064
rradius 66.008 -0 0
rwrist 12.5954 0 0
rhand -28.6578 -27.0227 0.035979
rfingers 7.12502 -0 0
rthumb -2.02122 -56.9888 0.034991
446
root 1.41217 15.2799 -8.90349 5.7394 12.1174 -14.327
lfemur -52.1124 20.7127 -0.586144
ltibia 63.8057 -0 0
lfoot -21.3349 -7.77244 0.0557689
ltoes -6.77062 0 0
rfemur -11.8751 -7.12493 10.5379
rtibia 37.5884 -0 0
rfoot -13.8226 -15.9531 0.0111548
rtoes -50.3456 0 0
lowerback 5.33818 1.38159 5.39571
upperback 0.845646 2.18083 1.25906
thorax -1.97137 1.05611 -1.87551
lowerneck -7.12887 -0.690324 4.89456
upperneck 0.0945636 -1.32357 0.102149
head 1.19829 -0.646897 -0.83545
lclavicle 6.19408e-14 -2.09194e-14 3.84311e-30
lhumerus -39.8939 -26.6507 98.7309
lradius 54.2541 -0 0
lwrist 6.41719 0 0
lhand -24.2688 -4.19113 0.0573564
lfingers 7.12502 -0 0
lthumb 2.21756 25.7561 0.0544872
rclavicle 6.19408e-14 -2.09194e-14 3.84311e-30
rhumerus -48.032 -2.03671 -88.7895
rradius 65.958 -0 0
rwrist 12.4521 0 0
rhand -27.9203 -26.1784 0.035293
rfingers 7.12502 -0 0
rthumb -1.30889 -56.1497 0.0342457
447
root 1.41671 15.3014 -8.84374 5.75744 14.0099 -14.5132
lfemur -53.3985 21.545 -2.00533
ltibia 63.9566 -0 0
lfoot -20.4539 -6.90458 0.0424144
ltoes -5.07612 0 0
rfemur -10.9999 -7.76441 10.8667
rtibia 37.1061 -0 0
rfoot -13.2681 -16.3187 0.0163669
rtoes -50.5209 0 0
lowerback 5.08359 1.29264 5.70645
upperback 0.79448 2.06723 1.36531
thorax -1.88238 0.999508 -1.92505
lowerneck -7.11466 -0.868457 4.72828
upperneck 0.0362287 -1.54502 0.101692
head 1.17267 -0.758588 -0.812831
lclavicle 6.78899e-14 -2.82495e-14 2.45959e-30
lhumerus -40.0873 -26.1578 99.0991
lradius 54.189 -0 0
lwrist 5.98549 0 0
lhand -25.3755 -5.0491 0.044628
lfingers 7.12502 -0 0
lthumb 1.14881 24.9113 0.0423714
rclavicle 6.78899e-14 -2.82495e-14 2.45959e-30
rhumerus -48.0519 -1.92491 -88.4298
rradius 65.9046 -0 0
rwrist 12.2849 0 0
rhand -27.2917 -25.4018 0.0261554
rfingers 7.12502 -0 0
rthumb -0.701774 -55.3768 0.0253209
